<svg xmlns="http://www.w3.org/2000/svg" xmlns:svg="http://www.w3.org/2000/svg" id="svg1177" width="762.465" height="1268.197" version="1.1" viewBox="0 0 201.736 335.544"><defs id="defs1171"><marker style="overflow:visible" id="marker5481" orient="auto" refX="0" refY="0"><path style="fill:#000;fill-opacity:1;fill-rule:evenodd;stroke:#000;stroke-width:1.00000003pt;stroke-opacity:1" id="path5479" d="M 5.77,0 -2.88,5 V -5 Z" transform="scale(0.4)"/></marker><marker id="marker5421" orient="auto" refX="0" refY="0" style="overflow:visible"><path id="path5419" d="M 5.77,0 -2.88,5 V -5 Z" transform="scale(0.4)" style="fill:#000;fill-opacity:1;fill-rule:evenodd;stroke:#000;stroke-width:1.00000003pt;stroke-opacity:1"/></marker><marker style="overflow:visible" id="marker5347" orient="auto" refX="0" refY="0"><path style="fill:#000;fill-opacity:1;fill-rule:evenodd;stroke:#000;stroke-width:1.00000003pt;stroke-opacity:1" id="path5345" d="M 5.77,0 -2.88,5 V -5 Z" transform="scale(0.4)"/></marker><marker style="overflow:visible" id="marker2995" orient="auto" refX="0" refY="0"><path style="fill:#000;fill-opacity:1;fill-rule:evenodd;stroke:#000;stroke-width:1.00000003pt;stroke-opacity:1" id="path2993" d="M 5.77,0 -2.88,5 V -5 Z" transform="scale(0.4)"/></marker><filter style="color-interpolation-filters:sRGB" id="filter1477" width="1.031" height="1.112" x="-.015" y="-.056"><feGaussianBlur id="feGaussianBlur1479" stdDeviation=".238"/></filter><filter id="filter1477-7-7" width="1.031" height="1.112" x="-.015" y="-.056" style="color-interpolation-filters:sRGB"><feGaussianBlur id="feGaussianBlur1479-9-5" stdDeviation=".238"/></filter><filter id="filter1477-5" width="1.031" height="1.112" x="-.015" y="-.056" style="color-interpolation-filters:sRGB"><feGaussianBlur id="feGaussianBlur1479-92" stdDeviation=".238"/></filter><marker id="TriangleOutL-2" orient="auto" refX="0" refY="0" style="overflow:visible"><path id="path1091-9" d="M 5.77,0 -2.88,5 V -5 Z" transform="scale(0.8)" style="fill:#000;fill-opacity:1;fill-rule:evenodd;stroke:#000;stroke-width:1.00000003pt;stroke-opacity:1"/></marker><marker id="marker5201" orient="auto" refX="0" refY="0" style="overflow:visible"><path id="path5199" d="M 5.77,0 -2.88,5 V -5 Z" transform="scale(0.4)" style="fill:#000;fill-opacity:1;fill-rule:evenodd;stroke:#000;stroke-width:1.00000003pt;stroke-opacity:1"/></marker></defs><metadata id="metadata1174"/><g id="layer1" transform="translate(-5.837804,5.526084)"><g id="g3538" transform="translate(-4.2333335,5.8964304)"><path style="font-style:normal;font-weight:400;font-size:72.17579651px;line-height:1.25;font-family:sans-serif;letter-spacing:0;word-spacing:0;fill:#000;fill-opacity:1;stroke:none;stroke-width:.15719134" id="path195" d="m 72.311656,81.432556 v 0.968022 h -1.345218 c -5.188503,-0.0094 -6.133092,-2.1881 -6.162313,-4.347537 v -6.892037 c 0,-1.186054 -0.390551,-2.006865 -1.171649,-2.462432 -0.781081,-0.455568 -2.199283,-1.267713 -4.252611,-1.227789 h -1.323522 l -1.78894,-0.297981 1.78894,-0.24651 h 1.323522 c 2.068449,0 3.485989,-0.819755 4.252611,-1.267474 0.781098,-0.455568 1.171649,-1.268529 1.171649,-2.438869 v -6.903815 c -0.0669,-3.033252 3.085532,-4.325876 6.162313,-4.335767 h 1.345218 v 0.713386 h -2.593493 c -2.895158,0.274887 -3.795448,2.593498 -3.807137,3.669508 v 6.998068 c 0,1.23318 -0.332682,2.128617 -0.998051,2.686296 -0.650912,0.557678 -1.771931,0.934699 -3.36305,1.13107 1.605582,0.21207 2.733831,0.596955 3.38474,1.154634 0.650913,0.557685 0.976361,1.449186 0.976361,2.67451 v 6.998068 c -0.02029,1.537994 1.70757,3.39556 3.58353,3.426649 z"/><text style="font-style:normal;font-weight:400;font-size:6.67770624px;line-height:1.25;font-family:sans-serif;letter-spacing:0;word-spacing:0;fill:#000;fill-opacity:1;stroke:none;stroke-width:.16694269" id="text1303-3" x="35.673" y="64.756" xml:space="preserve"><tspan id="tspan5193" x="35.673" y="64.756" style="font-weight:400;text-align:center;text-anchor:middle;stroke-width:.16694269">IPA</tspan><tspan style="font-weight:400;text-align:center;text-anchor:middle;stroke-width:.16694269" id="tspan4289" x="35.673" y="73.104">phonemes</tspan></text></g><path id="path2354" d="M 124.59521,8.535395 V 302.46455" style="fill:none;fill-rule:evenodd;stroke:#000;stroke-width:1.69299996;stroke-linecap:butt;stroke-linejoin:miter;stroke-miterlimit:4;stroke-dasharray:none;stroke-opacity:1"/><g id="g5735" transform="matrix(1.0983326,0,0,1.0983326,8.8504823,144.81467)"><rect style="opacity:1;fill:#c83737;fill-opacity:1;stroke:#501616;stroke-width:.67959148;stroke-miterlimit:4;stroke-dasharray:none;stroke-dashoffset:0;stroke-opacity:1" id="rect5727" width="47.625" height="20.411" x="81.454" y="22.589" rx="10.205" ry="10.205"/><text id="text5731" x="89.82" y="35.459" xml:space="preserve" style="font-style:normal;font-weight:400;font-size:7.11387825px;line-height:1.25;font-family:sans-serif;letter-spacing:0;word-spacing:0;fill:#fff;fill-opacity:1;stroke:none;stroke-width:.37213695"><tspan style="font-size:7.14656544px;fill:#fff;stroke-width:.37213695" id="tspan5729" x="89.82" y="35.459">GlowTTS</tspan></text><path style="opacity:.1;fill:#000;fill-opacity:1;stroke:none;stroke-width:.5;stroke-miterlimit:4;stroke-dasharray:none;stroke-dashoffset:0;stroke-opacity:1;filter:url(#filter1477-7-7)" id="path5733" d="M 129.07887,32.794642 C 129.07887,38.448411 124.52728,43 118.87351,43 H 91.659223 c 0.177872,-2.459989 31.594707,0.946279 37.419647,-10.205358 z"/></g><g id="g2775" transform="matrix(0.99048133,0,0,0.99048133,59.491024,227.92541)"><g id="g2773" transform="matrix(1.1036042,0,0,1.1036042,-50.570414,-2.0712899)"><rect style="opacity:1;fill:#71c837;fill-opacity:1;stroke:#2d5016;stroke-width:.67959148;stroke-miterlimit:4;stroke-dasharray:none;stroke-dashoffset:0;stroke-opacity:1" id="rect2763" width="47.625" height="20.411" x="81.454" y="22.589" rx="10.205" ry="10.205"/><text id="text2769" x="105.266" y="35.28" xml:space="preserve" style="font-style:normal;font-weight:400;font-size:6.66668129px;line-height:1.25;font-family:sans-serif;text-align:center;letter-spacing:0;word-spacing:0;text-anchor:middle;fill:#fff;fill-opacity:1;stroke:none;stroke-width:.34874347"><tspan style="text-align:center;text-anchor:middle;fill:#fff;stroke-width:.34874347" id="tspan2779" x="105.266" y="35.28">HiFi-GAN</tspan></text><path style="opacity:.1;fill:#000;fill-opacity:1;stroke:none;stroke-width:.5;stroke-miterlimit:4;stroke-dasharray:none;stroke-dashoffset:0;stroke-opacity:1;filter:url(#filter1477-5)" id="path2771" d="M 129.07887,32.794642 C 129.07887,38.448411 124.52728,43 118.87351,43 H 91.659223 c 0.177872,-2.459989 31.594707,0.946279 37.419647,-10.205358 z"/></g></g><path id="path3621" d="m 124.59521,61.069066 4.16195,-6.605843 -8.3239,8e-6 z" style="opacity:1;fill:#000;fill-opacity:1;stroke:none;stroke-width:.49999997;stroke-miterlimit:4;stroke-dasharray:none;stroke-dashoffset:0;stroke-opacity:1"/><g id="g4838" transform="matrix(1.1036042,0,0,1.1036042,8.2949494,-0.048137)"><rect style="opacity:1;fill:#37abc8;fill-opacity:1;stroke:#214478;stroke-width:.67959148;stroke-miterlimit:4;stroke-dasharray:none;stroke-dashoffset:0;stroke-opacity:1" id="rect4830" width="47.625" height="20.411" x="81.454" y="22.589" rx="10.205" ry="10.205"/><text id="text4834" x="95.521" y="34.552" xml:space="preserve" style="font-style:normal;font-weight:400;font-size:7.11387825px;line-height:1.25;font-family:sans-serif;letter-spacing:0;word-spacing:0;fill:#fff;fill-opacity:1;stroke:none;stroke-width:.37213695"><tspan style="fill:#fff;stroke-width:.37213695" id="tspan4832" x="95.521" y="34.552">gruut</tspan></text><path style="opacity:.1;fill:#000;fill-opacity:1;stroke:none;stroke-width:.5;stroke-miterlimit:4;stroke-dasharray:none;stroke-dashoffset:0;stroke-opacity:1;filter:url(#filter1477)" id="path4836" d="M 129.07887,32.794642 C 129.07887,38.448411 124.52728,43 118.87351,43 H 91.659223 c 0.177872,-2.459989 31.594707,0.946279 37.419647,-10.205358 z"/></g><g id="g2671" transform="translate(-15.44497,0.52916667)"><rect id="rect2648" width="69.17" height="19.277" x="105.455" y="-109.524" transform="scale(1,-1)" style="opacity:1;fill:#fea;fill-opacity:1;stroke:#540;stroke-width:1;stroke-linecap:round;stroke-linejoin:bevel;stroke-miterlimit:4;stroke-dasharray:none;stroke-dashoffset:0;stroke-opacity:1"/><text style="font-style:normal;font-weight:400;font-size:7.81340456px;line-height:1.25;font-family:sans-serif;letter-spacing:0;word-spacing:0;fill:#000;fill-opacity:1;stroke:none;stroke-width:.40873015" id="text5731-3" x="112.552" y="102.051" xml:space="preserve"><tspan id="tspan5729-0" x="112.552" y="102.051" style="font-size:7.84930611px;fill:#000;stroke-width:.40873015">phonemes.txt</tspan></text></g><g id="g3421" transform="translate(-5.0506259,4.7625002)"><rect style="opacity:1;fill:#fff;fill-opacity:1;stroke:#000;stroke-width:.99999994;stroke-linecap:round;stroke-linejoin:bevel;stroke-miterlimit:4;stroke-dasharray:.99999999,2;stroke-dashoffset:0;stroke-opacity:1" id="rect2648-3" width="105.455" height="11.717" x="76.918" y="-74.183" transform="scale(1,-1)"/><text style="font-style:normal;font-weight:400;font-size:6.67770624px;line-height:1.25;font-family:sans-serif;letter-spacing:0;word-spacing:0;fill:#000;fill-opacity:1;stroke:none;stroke-width:.16694269" id="text3401" x="129.987" y="70.088" xml:space="preserve"><tspan id="tspan3399" x="129.987" y="70.088" style="font-weight:400;text-align:center;text-anchor:middle;stroke-width:.16694269">t ˈɛ k s t # t ə # s p ˈi k # ‖</tspan></text></g><g id="g3501" transform="translate(54.291636,-6.5767857)"><rect id="rect2648-3-2" width="72.193" height="11.717" x="34.207" y="-23.912" transform="scale(1,-1)" style="opacity:1;fill:#fff;fill-opacity:1;stroke:#000;stroke-width:.99999994;stroke-linecap:round;stroke-linejoin:bevel;stroke-miterlimit:4;stroke-dasharray:1,2.00000002;stroke-dashoffset:0;stroke-opacity:1"/><text id="text1996" x="70.307" y="19.896" xml:space="preserve" style="font-style:normal;font-weight:400;font-size:6.67770624px;line-height:1.25;font-family:sans-serif;letter-spacing:0;word-spacing:0;fill:#000;fill-opacity:1;stroke:none;stroke-width:.16694269"><tspan style="font-weight:400;text-align:center;text-anchor:middle;stroke-width:.16694269" id="tspan1994" x="70.307" y="19.896">&quot;Text to speak&quot;</tspan></text></g><g id="g3546" transform="translate(-4.2333335,-55.713685)"><path id="path3540" d="m 72.311656,78.429441 v 0.763903 h -1.345218 c -5.188503,-0.0074 -6.133092,-1.726713 -6.162313,-3.430807 v -5.438768 c 0,-0.93596 -0.390551,-1.583693 -1.171649,-1.943198 -0.781081,-0.359506 -2.199283,-1.000401 -4.252611,-0.968895 h -1.323522 l -1.78894,-0.235148 1.78894,-0.19453 h 1.323522 c 2.068449,0 3.485989,-0.6469 4.252611,-1.000212 0.781098,-0.359506 1.171649,-1.001045 1.171649,-1.924604 v -5.448063 c -0.0669,-2.393654 3.085532,-3.413712 6.162313,-3.421518 h 1.345218 v 0.56296 h -2.593493 c -2.895158,0.216924 -3.795448,2.046628 -3.807137,2.895748 v 5.522441 c 0,0.973149 -0.332682,1.679772 -0.998051,2.119858 -0.650912,0.440085 -1.771931,0.737607 -3.36305,0.89257 1.605582,0.167353 2.733831,0.47108 3.38474,0.911166 0.650913,0.44009 0.976361,1.143607 0.976361,2.110557 v 5.522441 c -0.02029,1.213689 1.70757,2.679565 3.58353,2.704099 z" style="font-style:normal;font-weight:400;font-size:72.17579651px;line-height:1.25;font-family:sans-serif;letter-spacing:0;word-spacing:0;fill:#000;fill-opacity:1;stroke:none;stroke-width:.15719134"/><text id="text3544" x="35.804" y="69.033" xml:space="preserve" style="font-style:normal;font-weight:400;font-size:6.67770624px;line-height:1.25;font-family:sans-serif;letter-spacing:0;word-spacing:0;fill:#000;fill-opacity:1;stroke:none;stroke-width:.16694269"><tspan style="font-weight:400;text-align:center;text-anchor:middle;stroke-width:.16694269" id="tspan3542" x="35.804" y="69.033">text</tspan></text></g><g id="g4297" transform="translate(-5.0506297,66.145836)"><rect id="rect4291" width="78.997" height="31.75" x="90.147" y="-94.216" transform="scale(1,-1)" style="opacity:1;fill:#fff;fill-opacity:1;stroke:#000;stroke-width:.99999988;stroke-linecap:round;stroke-linejoin:bevel;stroke-miterlimit:4;stroke-dasharray:.99999999,2.00000001;stroke-dashoffset:0;stroke-opacity:1"/><text id="text4295" x="129.729" y="72.084" xml:space="preserve" style="font-style:normal;font-weight:400;font-size:6.67770624px;line-height:1.25;font-family:sans-serif;letter-spacing:0;word-spacing:0;fill:#000;fill-opacity:1;stroke:none;stroke-width:.16694269"><tspan style="font-weight:400;text-align:center;text-anchor:middle;stroke-width:.16694269" id="tspan4301" x="129.729" y="72.084">23,4,37,16,22,23,3,</tspan><tspan style="font-weight:400;text-align:center;text-anchor:middle;stroke-width:.16694269" id="tspan4305" x="129.729" y="80.431">23,35,3,</tspan><tspan style="font-weight:400;text-align:center;text-anchor:middle;stroke-width:.16694269" id="tspan4307" x="129.729" y="88.778">22,21,4,14,16,3,2</tspan></text></g><g id="g4317" transform="translate(-4.2333335,77.296138)"><path id="path4309" d="m 72.311656,87.438783 v 1.376261 h -1.345218 c -5.188503,-0.01337 -6.133092,-3.110875 -6.162313,-6.180999 V 72.83547 c 0,-1.686241 -0.390551,-2.853208 -1.171649,-3.500899 -0.781081,-0.647692 -2.199283,-1.802338 -4.252611,-1.745577 h -1.323522 l -1.78894,-0.423647 1.78894,-0.350469 h 1.323522 c 2.068449,0 3.485989,-1.165465 4.252611,-1.801998 0.781098,-0.647692 1.171649,-1.803498 1.171649,-3.467399 v -9.81532 c -0.0669,-4.312448 3.085532,-6.150202 6.162313,-6.164265 h 1.345218 v 1.014239 h -2.593493 c -2.895158,0.390813 -3.795448,3.687238 -3.807137,5.217028 v 9.949321 c 0,1.753242 -0.332682,3.026307 -0.998051,3.819172 -0.650912,0.792864 -1.771931,1.328884 -3.36305,1.60807 1.605582,0.301505 2.733831,0.848705 3.38474,1.641571 0.650913,0.792874 0.976361,2.060342 0.976361,3.802415 v 9.949322 c -0.02029,2.186603 1.70757,4.827549 3.58353,4.871749 z" style="font-style:normal;font-weight:400;font-size:72.17579651px;line-height:1.25;font-family:sans-serif;letter-spacing:0;word-spacing:0;fill:#000;fill-opacity:1;stroke:none;stroke-width:.15719134"/><text id="text4315" x="35.686" y="65.506" xml:space="preserve" style="font-style:normal;font-weight:400;font-size:6.67770624px;line-height:1.25;font-family:sans-serif;letter-spacing:0;word-spacing:0;fill:#000;fill-opacity:1;stroke:none;stroke-width:.16694269"><tspan id="tspan4313" x="35.686" y="65.506" style="font-weight:400;text-align:center;text-anchor:middle;stroke-width:.16694269">phoneme</tspan><tspan style="font-weight:400;text-align:center;text-anchor:middle;stroke-width:.16694269" id="tspan4321" x="35.686" y="73.853">ids</tspan></text></g><g id="g4331" transform="translate(-4.2333335,158.75)"><path style="font-style:normal;font-weight:400;font-size:72.17579651px;line-height:1.25;font-family:sans-serif;letter-spacing:0;word-spacing:0;fill:#000;fill-opacity:1;stroke:none;stroke-width:.15719134" id="path4323" d="m 72.311656,84.936187 v 1.206161 h -1.345218 c -5.188503,-0.01171 -6.133092,-2.726385 -6.162313,-5.417056 v -8.587517 c 0,-1.47783 -0.390551,-2.500566 -1.171649,-3.068205 -0.781081,-0.56764 -2.199283,-1.579577 -4.252611,-1.529832 h -1.323522 l -1.78894,-0.371286 1.78894,-0.307153 h 1.323522 c 2.068449,0 3.485989,-1.021419 4.252611,-1.57928 0.781098,-0.56764 1.171649,-1.580594 1.171649,-3.038844 v -8.602193 c -0.0669,-3.779449 3.085532,-5.390066 6.162313,-5.40239 h 1.345218 v 0.888883 h -2.593493 c -2.895158,0.34251 -3.795448,3.231513 -3.807137,4.572227 v 8.719633 c 0,1.536549 -0.332682,2.652269 -0.998051,3.34714 -0.650912,0.69487 -1.771931,1.164641 -3.36305,1.40932 1.605582,0.26424 2.733831,0.743809 3.38474,1.43868 0.650913,0.694879 0.976361,1.805694 0.976361,3.332455 v 8.719633 c -0.02029,1.916349 1.70757,4.230887 3.58353,4.269624 z"/><text style="font-style:normal;font-weight:400;font-size:6.67770624px;line-height:1.25;font-family:sans-serif;letter-spacing:0;word-spacing:0;fill:#000;fill-opacity:1;stroke:none;stroke-width:.16694269" id="text4329" x="35.916" y="64.859" xml:space="preserve"><tspan id="tspan4327" x="35.916" y="64.859" style="font-weight:400;text-align:center;text-anchor:middle;stroke-width:.16694269">mel</tspan><tspan style="font-weight:400;text-align:center;text-anchor:middle;stroke-width:.16694269" id="tspan4335" x="35.916" y="73.206">spectrogram</tspan></text></g><g id="g4345" transform="translate(-4.2333335,237.80615)"><path id="path4337" d="m 72.311656,85.937229 v 1.2742 h -1.345218 c -5.188503,-0.01237 -6.133092,-2.880181 -6.162313,-5.722633 v -9.07194 c 0,-1.561195 -0.390551,-2.641623 -1.171649,-3.241283 -0.781081,-0.599661 -2.199283,-1.668682 -4.252611,-1.61613 h -1.323522 l -1.78894,-0.39223 1.78894,-0.32448 h 1.323522 c 2.068449,0 3.485989,-1.079037 4.252611,-1.668367 0.781098,-0.599661 1.171649,-1.669756 1.171649,-3.210266 v -9.087444 c -0.0669,-3.992649 3.085532,-5.694121 6.162313,-5.707141 h 1.345218 v 0.939025 h -2.593493 c -2.895158,0.361832 -3.795448,3.413804 -3.807137,4.830149 v 9.211508 c 0,1.623226 -0.332682,2.801884 -0.998051,3.535953 -0.650912,0.734068 -1.771931,1.230338 -3.36305,1.48882 1.605582,0.279146 2.733831,0.785767 3.38474,1.519836 0.650913,0.734077 0.976361,1.907554 0.976361,3.52044 v 9.211508 c -0.02029,2.024451 1.70757,4.469552 3.58353,4.510475 z" style="font-style:normal;font-weight:400;font-size:72.17579651px;line-height:1.25;font-family:sans-serif;letter-spacing:0;word-spacing:0;fill:#000;fill-opacity:1;stroke:none;stroke-width:.15719134"/><text id="text4343" x="35.957" y="69.68" xml:space="preserve" style="font-style:normal;font-weight:400;font-size:6.67770624px;line-height:1.25;font-family:sans-serif;letter-spacing:0;word-spacing:0;fill:#000;fill-opacity:1;stroke:none;stroke-width:.16694269"><tspan id="tspan4341" x="35.957" y="69.68" style="font-weight:400;text-align:center;text-anchor:middle;stroke-width:.16694269">waveform</tspan></text></g><path id="path4469" d="m 124.59521,123.51074 4.16195,-6.60584 -8.3239,1e-5 z" style="opacity:1;fill:#000;fill-opacity:1;stroke:none;stroke-width:.49999997;stroke-miterlimit:4;stroke-dasharray:none;stroke-dashoffset:0;stroke-opacity:1"/><path style="opacity:1;fill:#000;fill-opacity:1;stroke:none;stroke-width:.49999997;stroke-miterlimit:4;stroke-dasharray:none;stroke-dashoffset:0;stroke-opacity:1" id="path4471" d="m 124.59521,206.06081 4.16195,-6.60584 -8.3239,1e-5 z"/><path id="path4539" d="m 124.59521,285.43586 4.16195,-6.60584 -8.3239,1e-5 z" style="opacity:1;fill:#000;fill-opacity:1;stroke:none;stroke-width:.49999997;stroke-miterlimit:4;stroke-dasharray:none;stroke-dashoffset:0;stroke-opacity:1"/><g id="g4643" transform="translate(-13.90413,7.4083334)"><rect style="opacity:1;fill:#fff;fill-opacity:1;stroke:#000;stroke-width:.99999988;stroke-linecap:round;stroke-linejoin:bevel;stroke-miterlimit:4;stroke-dasharray:1.00000001,2.00000004;stroke-dashoffset:0;stroke-opacity:1" id="rect4291-5" width="53.874" height="31.75" x="111.562" y="-313.463" transform="scale(1,-1)"/><g id="g943" transform="matrix(1.5223228,0,0,1.5223228,9.3812589,241.03826)"><path style="fill:none;stroke:#000;stroke-width:.25;stroke-linecap:butt;stroke-linejoin:miter;stroke-opacity:1" id="path828" d="m 74.701833,34.274053 v 5.746295"/><path id="use862" d="m 73.114332,35.313488 v 3.667425" style="fill:none;stroke:#000;stroke-width:.25;stroke-linecap:butt;stroke-linejoin:miter;stroke-opacity:1"/><path id="use864" d="m 76.289333,33.04563 v 8.203141" style="fill:none;stroke:#000;stroke-width:.25;stroke-linecap:butt;stroke-linejoin:miter;stroke-opacity:1"/><path id="use866" d="M 77.876833,31.533726 V 42.760675" style="fill:none;stroke:#000;stroke-width:.25;stroke-linecap:butt;stroke-linejoin:miter;stroke-opacity:1"/><path id="use868" d="m 79.464333,33.140124 v 8.014153" style="fill:none;stroke:#000;stroke-width:.25;stroke-linecap:butt;stroke-linejoin:miter;stroke-opacity:1"/><path id="use870" d="m 81.051832,34.274053 v 5.746295" style="fill:none;stroke:#000;stroke-width:.25;stroke-linecap:butt;stroke-linejoin:miter;stroke-opacity:1"/><path id="use872" d="m 82.639332,35.171746 v 3.950909" style="fill:none;stroke:#000;stroke-width:.25;stroke-linecap:butt;stroke-linejoin:miter;stroke-opacity:1"/><path id="use874" d="m 84.226832,36.116687 v 2.061027" style="fill:none;stroke:#000;stroke-width:.25;stroke-linecap:butt;stroke-linejoin:miter;stroke-opacity:1"/><path id="use876" d="m 85.814332,35.030005 v 4.234391" style="fill:none;stroke:#000;stroke-width:.25;stroke-linecap:butt;stroke-linejoin:miter;stroke-opacity:1"/><path id="use878" d="m 87.401832,33.423607 v 7.447187" style="fill:none;stroke:#000;stroke-width:.25;stroke-linecap:butt;stroke-linejoin:miter;stroke-opacity:1"/><path id="use880" d="m 88.989332,34.274053 v 5.746295" style="fill:none;stroke:#000;stroke-width:.25;stroke-linecap:butt;stroke-linejoin:miter;stroke-opacity:1"/><path id="use882" d="M 90.576825,30.541538 V 43.752862" style="fill:none;stroke:#000;stroke-width:.25;stroke-linecap:butt;stroke-linejoin:miter;stroke-opacity:1"/><path id="use884" d="M 92.164332,31.769961 V 42.52444" style="fill:none;stroke:#000;stroke-width:.25;stroke-linecap:butt;stroke-linejoin:miter;stroke-opacity:1"/><path id="use886" d="m 93.751834,33.423607 v 7.447188" style="fill:none;stroke:#000;stroke-width:.25;stroke-linecap:butt;stroke-linejoin:miter;stroke-opacity:1"/><path id="use888" d="m 95.339331,35.030005 v 4.234391" style="fill:none;stroke:#000;stroke-width:.25;stroke-linecap:butt;stroke-linejoin:miter;stroke-opacity:1"/><path id="use890" d="m 96.926831,35.927699 v 2.439003" style="fill:none;stroke:#000;stroke-width:.25;stroke-linecap:butt;stroke-linejoin:miter;stroke-opacity:1"/><path style="fill:none;stroke:#000;stroke-width:.26472703;stroke-linecap:butt;stroke-linejoin:miter;stroke-miterlimit:4;stroke-dasharray:none;stroke-opacity:1" id="path922" d="m 70.121763,37.141371 h 29.38946"/></g></g><g id="g4741"><g id="g4753" transform="translate(6.7422246)"><rect style="opacity:1;fill:#fff;fill-opacity:1;stroke:#000;stroke-width:.99999988;stroke-linecap:round;stroke-linejoin:bevel;stroke-miterlimit:4;stroke-dasharray:1.00000002,2.00000006;stroke-dashoffset:0;stroke-opacity:1" id="rect4291-5-2" width="53.874" height="31.75" x="90.916" y="-241.815" transform="scale(1,-1)"/><g id="layer1-4" transform="matrix(0.63989141,0,0,0.38701216,97.846894,213.17045)" style="stroke-width:.76846111"><rect id="rect11076" width="5.408" height="28.648" x="5.818" y="30.625" style="fill:#ccc;stroke:#333;stroke-width:.50237101;stroke-linecap:round;stroke-linejoin:round;stroke-miterlimit:4;stroke-dasharray:none"/><path id="path10302" d="M 1.0733463,6.1818182 V 59.818182 H 61.449195" style="fill:none;stroke:#000;stroke-width:1.00474203;stroke-linecap:round;stroke-linejoin:round;stroke-miterlimit:4;stroke-dasharray:none;stroke-opacity:1"/><rect style="fill:#ccc;stroke:#333;stroke-width:.50237101;stroke-linecap:round;stroke-linejoin:round;stroke-miterlimit:4;stroke-dasharray:none" id="rect2815" width="5.408" height="42.405" x="13.902" y="16.868"/><rect id="rect2817" width="5.408" height="48.704" x="21.985" y="10.568" style="fill:#ccc;stroke:#333;stroke-width:.50237101;stroke-linecap:round;stroke-linejoin:round;stroke-miterlimit:4;stroke-dasharray:none"/><rect style="fill:#ccc;stroke:#333;stroke-width:.50237101;stroke-linecap:round;stroke-linejoin:round;stroke-miterlimit:4;stroke-dasharray:none" id="rect2819" width="5.408" height="38.033" x="30.069" y="21.239"/><rect id="rect2821" width="5.408" height="25.048" x="38.152" y="34.224" style="fill:#ccc;stroke:#333;stroke-width:.50237101;stroke-linecap:round;stroke-linejoin:round;stroke-miterlimit:4;stroke-dasharray:none"/><rect style="fill:#ccc;stroke:#333;stroke-width:.50237101;stroke-linecap:round;stroke-linejoin:round;stroke-miterlimit:4;stroke-dasharray:none" id="rect2823" width="5.408" height="15.776" x="46.236" y="43.497"/><rect id="rect2825" width="5.408" height="11.048" x="54.319" y="48.224" style="fill:#ccc;stroke:#333;stroke-width:.50237101;stroke-linecap:round;stroke-linejoin:round;stroke-miterlimit:4;stroke-dasharray:none"/></g></g></g><g id="g6204"><path id="path5197" d="M 202.57334,37.214019 H 165.20156" style="fill:none;fill-rule:evenodd;stroke:#000;stroke-width:1.69300008;stroke-linecap:butt;stroke-linejoin:miter;stroke-miterlimit:4;stroke-dasharray:1.69300004,3.38600007;stroke-dashoffset:0;stroke-opacity:1;marker-end:url(#marker5201)"/><text style="font-style:normal;font-weight:400;font-size:6.67770624px;line-height:1.25;font-family:sans-serif;letter-spacing:0;word-spacing:0;fill:#000;fill-opacity:1;stroke:none;stroke-width:.1669427" id="text3544-7" x="187.376" y="30.157" xml:space="preserve"><tspan id="tspan3542-2" x="187.376" y="30.157" style="font-weight:400;text-align:center;text-anchor:middle;stroke-width:.1669427">language</tspan></text></g><path id="path5477" d="M 201.56378,174.20332 V 101.63186 H 170.49325" style="fill:none;fill-rule:evenodd;stroke:#000;stroke-width:1.69300008;stroke-linecap:butt;stroke-linejoin:miter;stroke-miterlimit:4;stroke-dasharray:1.69300004,3.38600007;stroke-dashoffset:0;stroke-opacity:1;marker-end:url(#marker5481)"/><g id="g5343" transform="translate(0,142.34586)"><path style="fill:none;fill-rule:evenodd;stroke:#000;stroke-width:1.69300008;stroke-linecap:butt;stroke-linejoin:miter;stroke-miterlimit:4;stroke-dasharray:1.69300004,3.38600007;stroke-dashoffset:0;stroke-opacity:1;marker-end:url(#marker5347)" id="path5337" d="M 202.57334,37.214019 H 165.20156"/><text id="text5341" x="184.471" y="31.065" xml:space="preserve" style="font-style:normal;font-weight:400;font-size:6.67770624px;line-height:1.25;font-family:sans-serif;letter-spacing:0;word-spacing:0;fill:#000;fill-opacity:1;stroke:none;stroke-width:.1669427"><tspan style="font-weight:400;text-align:center;text-anchor:middle;stroke-width:.1669427" id="tspan5339" x="184.471" y="31.065">voice</tspan></text></g><g id="g5417" transform="translate(0,225.95424)"><path id="path5411" d="M 202.57334,37.214019 H 165.20156" style="fill:none;fill-rule:evenodd;stroke:#000;stroke-width:1.69300008;stroke-linecap:butt;stroke-linejoin:miter;stroke-miterlimit:4;stroke-dasharray:1.69300004,3.38600007;stroke-dashoffset:0;stroke-opacity:1;marker-end:url(#marker5421)"/><text style="font-style:normal;font-weight:400;font-size:6.67770624px;line-height:1.25;font-family:sans-serif;letter-spacing:0;word-spacing:0;fill:#000;fill-opacity:1;stroke:none;stroke-width:.1669427" id="text5415" x="189.133" y="30.157" xml:space="preserve"><tspan id="tspan5413" x="189.133" y="30.157" style="font-weight:400;text-align:center;text-anchor:middle;stroke-width:.1669427">vocoder</tspan></text></g></g></svg>